<svg width="15" height="15" viewBox="0 0 15 15" fill="none" xmlns="http://www.w3.org/2000/svg">
<path d="M11.9462 6.49571C11.9293 6.83904 11.6688 7.26294 11.2491 7.67034V13.039C11.2486 13.1772 11.1941 13.2944 11.1021 13.386C11.0096 13.4757 10.8897 13.5288 10.7487 13.5297H1.99951C1.85944 13.5288 1.73903 13.4757 1.64657 13.386C1.55455 13.2944 1.50056 13.1772 1.50009 13.039V4.45958C1.50056 4.3218 1.55455 4.20414 1.64657 4.11259C1.73903 4.02285 1.85944 3.96977 1.99951 3.96886H6.64626C7.02208 3.47538 7.46016 2.97001 7.95639 2.50677C7.95867 2.50401 7.96052 2.50126 7.9628 2.49854H1.99951C1.4502 2.49807 0.945294 2.71917 0.585938 3.07258C0.224766 3.42599 -0.00046802 3.92037 7.30241e-07 4.45961V13.039C-0.00046802 13.5783 0.224766 14.0736 0.585938 14.4261C0.945264 14.7794 1.4502 15 1.99951 15H10.7488C11.299 15 11.8039 14.7794 12.1632 14.426C12.5235 14.0735 12.7492 13.5782 12.7487 13.039V5.96105C12.7487 5.96105 12.745 5.95648 12.7391 5.95188C12.5116 6.14691 12.2465 6.33274 11.9462 6.49571Z" fill="white"/>
<path d="M14.2025 0C14.2025 0 13.7429 0.68666 10.7409 1.70241C7.67982 2.73835 5.79565 6.95253 5.79565 6.95253C5.34202 7.81588 3.54893 11.4029 3.54893 11.4029C3.05502 12.3294 3.96 12.8769 4.49101 11.9202C5.5086 10.0836 6.1655 8.40545 7.71275 8.35784C9.96999 8.28826 11.5136 6.31714 11.0279 6.40869C10.3888 6.68701 8.97984 6.42976 9.80976 6.30158C11.802 6.14183 13.0297 4.64446 12.6296 4.54286C11.9233 4.81477 11.2645 4.5566 11.1354 4.47876C14.6516 4.0512 14.2025 0 14.2025 0Z" fill="white"/>
</svg>
