<svg width="15" height="15" viewBox="0 0 15 15" fill="none" xmlns="http://www.w3.org/2000/svg">
<path d="M1.5 0C0.675 0 0 0.675 0 1.5V11.25C0 12.075 0.675 12.75 1.5 12.75H6V13.5H3V15H12V13.5H9V12.75H13.5C14.325 12.75 15 12.075 15 11.25V1.5C15 0.675 14.325 0 13.5 0H1.5ZM1.5 1.5H13.5V11.25H1.5V1.5ZM7.5 2.25C6.675 2.25 6 2.925 6 3.75C6 4.575 6.675 5.25 7.5 5.25C8.325 5.25 9 4.575 9 3.75C9 2.925 8.325 2.25 7.5 2.25ZM6 6C5.175 6 4.5 6.675 4.5 7.5V8.25H10.5V7.5C10.5 6.675 9.825 6 9 6H6ZM2.25 9V10.5H5.25V9H2.25ZM6 9V10.5H9V9H6ZM9.75 9V10.5H12.75V9H9.75Z" fill="white"/>
</svg>
