<svg width="16" height="15" viewBox="0 0 16 15" fill="none" xmlns="http://www.w3.org/2000/svg">
<path fill-rule="evenodd" clip-rule="evenodd" d="M5.57634 6.15312H2.98975C2.61021 6.15012 2.24497 6.29243 1.97438 6.54874C1.70379 6.80505 1.55 7.15438 1.54688 7.51987V12.6926C1.5539 13.4534 2.19976 14.0649 2.98975 14.0584H5.57634C5.95585 14.0615 6.32113 13.9192 6.59174 13.6629C6.86234 13.4066 7.01612 13.0573 7.01922 12.6917V7.51987C7.01612 7.15438 6.86234 6.80505 6.59174 6.54874C6.32113 6.29243 5.95585 6.15012 5.57634 6.15312Z" stroke="white" stroke-width="1.5" stroke-linecap="round" stroke-linejoin="round"/>
<path fill-rule="evenodd" clip-rule="evenodd" d="M5.57634 0.882854H2.98975C2.21565 0.862178 1.57021 1.44881 1.54688 2.19426V3.08493C1.57021 3.83039 2.21565 4.41702 2.98975 4.39633H5.57634C6.35041 4.41702 6.99587 3.83039 7.01922 3.08493V2.19426C6.99587 1.44881 6.35041 0.862178 5.57634 0.882854Z" stroke="white" stroke-width="1.5" stroke-linecap="round" stroke-linejoin="round"/>
<path fill-rule="evenodd" clip-rule="evenodd" d="M10.2905 8.78822H12.8762C13.2559 8.79147 13.6214 8.64926 13.8922 8.39296C14.1629 8.13656 14.3169 7.78714 14.32 7.42148V2.2496C14.3169 1.8841 14.1631 1.53475 13.8925 1.27843C13.6219 1.02212 13.2566 0.879821 12.8771 0.88286H10.2905C9.91102 0.879821 9.54574 1.02212 9.27514 1.27843C9.00453 1.53475 8.85076 1.8841 8.84766 2.2496V7.42148C8.85076 7.78697 9.00453 8.1363 9.27514 8.3926C9.54574 8.64891 9.91102 8.79121 10.2905 8.78822Z" stroke="white" stroke-width="1.5" stroke-linecap="round" stroke-linejoin="round"/>
<path fill-rule="evenodd" clip-rule="evenodd" d="M10.2905 14.0587H12.8762C13.6506 14.0799 14.2966 13.4931 14.32 12.7473V11.8566C14.2966 11.1111 13.6512 10.5246 12.8771 10.5452H10.2905C9.51647 10.5246 8.871 11.1111 8.84766 11.8566V12.7464C8.87046 13.4922 9.5161 14.0793 10.2905 14.0587Z" stroke="white" stroke-width="1.5" stroke-linecap="round" stroke-linejoin="round"/>
</svg>
