<svg width="15" height="14" viewBox="0 0 15 14" fill="none" xmlns="http://www.w3.org/2000/svg">
<path d="M13.4453 1H1.55471C1.24835 1 1 1.24835 1 1.55471V9.88635C1 10.1927 1.24835 10.4411 1.55471 10.4411H13.4453C13.7516 10.4411 14 10.1927 14 9.88635V1.55471C14 1.24835 13.7516 1 13.4453 1Z" stroke="white" stroke-width="1.7"/>
<path d="M1 8.64502H14" stroke="white" stroke-width="1.7"/>
<path d="M5.04297 12.6324C5.44302 12.4453 5.76198 12.1199 5.94112 11.7162C6.12025 11.3126 6.1475 10.8577 6.01783 10.4355" stroke="white" stroke-width="1.7"/>
<path d="M10.2007 12.6324C9.80026 12.4458 9.48093 12.1204 9.30173 11.7166C9.12253 11.3128 9.09557 10.8577 9.22584 10.4355" stroke="white" stroke-width="1.7"/>
<path d="M3.51953 12.6323H11.4832" stroke="white" stroke-width="1.7" stroke-linecap="round"/>
<path d="M3.32422 3.29563L4.12059 3.85308L5.10643 2.46631" stroke="white" stroke-width="1.7"/>
<path d="M3.21094 5.98685L4.00456 6.54156L4.99041 5.15479" stroke="white" stroke-width="1.7"/>
<path d="M6.56641 3.37793H12.2838" stroke="white" stroke-width="1.7"/>
<path d="M6.56641 6.17383H12.2838" stroke="white" stroke-width="1.7"/>
</svg>
