<svg width="85" height="85" viewBox="0 0 85 85" fill="none" xmlns="http://www.w3.org/2000/svg">
<g clip-path="url(#clip0_303_2789)">
<path d="M15.0521 6.85113e-06H69.9479C71.9251 -0.00190445 73.8833 0.396108 75.7103 1.17126C77.5373 1.94642 79.1974 3.0835 80.5955 4.51744C81.9936 5.95137 83.1022 7.65401 83.858 9.5279C84.6138 11.4018 85.0019 13.4102 85 15.438V69.562C85.0019 71.5899 84.6138 73.5982 83.858 75.4721C83.1022 77.346 81.9936 79.0486 80.5955 80.4826C79.1974 81.9165 77.5373 83.0536 75.7103 83.8287C73.8833 84.6039 71.9251 85.0019 69.9479 85H15.0521C13.0749 85.0019 11.1167 84.6039 9.2897 83.8287C7.46266 83.0536 5.80259 81.9165 4.4045 80.4826C3.00642 79.0486 1.89776 77.346 1.14198 75.4721C0.386205 73.5982 -0.00185684 71.5899 6.67985e-06 69.562V15.438C-0.00185684 13.4102 0.386205 11.4018 1.14198 9.5279C1.89776 7.65401 3.00642 5.95137 4.4045 4.51744C5.80259 3.0835 7.46266 1.94642 9.2897 1.17126C11.1167 0.396108 13.0749 -0.00190445 15.0521 6.85113e-06Z" fill="#000B1D"/>
<path d="M42.3795 14.025C27.6462 14.025 28.5662 20.4143 28.5662 20.4143L28.5826 27.0335H42.6423V29.0209H22.9982C22.9982 29.0209 13.5703 27.9517 13.5703 42.8178C13.5703 57.6839 21.7992 57.1567 21.7992 57.1567H26.7102V50.2582C26.7102 50.2582 26.4455 42.0294 34.8077 42.0294C43.1698 42.0294 48.7524 42.0294 48.7524 42.0294C48.7524 42.0294 56.587 42.156 56.587 34.4575C56.587 26.759 56.587 21.7283 56.587 21.7283C56.587 21.7283 57.7765 14.025 42.3795 14.025ZM34.627 18.4761C36.0258 18.4761 37.1564 19.6067 37.1564 21.0056C37.1564 22.4044 36.0258 23.535 34.627 23.535C33.2281 23.535 32.0976 22.4044 32.0976 21.0056C32.0975 19.6067 33.2281 18.4761 34.627 18.4761Z" fill="url(#paint0_linear_303_2789)"/>
<path d="M42.7972 71.7597C57.5305 71.7597 56.6105 65.3704 56.6105 65.3704L56.594 58.7512H42.5344V56.7638H62.1785C62.1785 56.7638 71.6064 57.833 71.6064 42.9669C71.6064 28.1008 63.3775 28.628 63.3775 28.628H58.4665V35.5264C58.4665 35.5264 58.7312 43.7553 50.369 43.7553C42.0069 43.7553 36.4243 43.7553 36.4243 43.7553C36.4243 43.7553 28.5897 43.6286 28.5897 51.3271C28.5897 59.0256 28.5897 64.0564 28.5897 64.0564C28.5897 64.0564 27.4001 71.7597 42.7972 71.7597ZM50.5497 67.3085C49.1509 67.3085 48.0203 66.1779 48.0203 64.7791C48.0203 63.3803 49.1509 62.2497 50.5497 62.2497C51.9485 62.2497 53.0791 63.3803 53.0791 64.7791C53.0791 66.1779 51.9485 67.3085 50.5497 67.3085Z" fill="url(#paint1_linear_303_2789)"/>
</g>
<defs>
<linearGradient id="paint0_linear_303_2789" x1="19.1478" y1="19.0715" x2="47.8453" y2="47.865" gradientUnits="userSpaceOnUse">
<stop stop-color="#387EB8"/>
<stop offset="1" stop-color="#366994"/>
</linearGradient>
<linearGradient id="paint1_linear_303_2789" x1="36.8005" y1="37.3887" x2="67.6217" y2="66.917" gradientUnits="userSpaceOnUse">
<stop stop-color="#FFE052"/>
<stop offset="1" stop-color="#FFC331"/>
</linearGradient>
<clipPath id="clip0_303_2789">
<rect width="85" height="85" fill="white"/>
</clipPath>
</defs>
</svg>
